<svg width="349" height="60" viewBox="0 0 349 60" fill="none" xmlns="http://www.w3.org/2000/svg">
<path d="M334.647 24.027L333.728 20.7068L343.366 12.9878H349L334.647 24.027ZM331 28V7H334.974V28H331ZM343.87 28L336.812 20.1392L339.659 17.8689L348.941 28H343.87Z" fill="black"/>
<path d="M320.489 28V12.7531H324.569V28H320.489ZM322.5 9.4386C321.715 9.4386 321.102 9.24645 320.661 8.86216C320.22 8.47786 320 7.93024 320 7.2193C320 6.566 320.22 6.03759 320.661 5.63409C321.121 5.21136 321.734 5 322.5 5C323.285 5 323.898 5.20175 324.339 5.60526C324.78 5.98956 325 6.52757 325 7.2193C325 7.89181 324.78 8.42982 324.339 8.83333C323.898 9.23684 323.285 9.4386 322.5 9.4386Z" fill="black"/>
<path d="M298 28V12.3259H301.865L301.95 16.2963L300.899 16.5333C301.183 15.763 301.638 15.0321 302.263 14.3407C302.907 13.6494 303.674 13.0864 304.565 12.6519C305.474 12.2173 306.488 12 307.606 12C308.97 12 310.126 12.2864 311.073 12.8593C312.02 13.4123 312.74 14.1827 313.233 15.1704C313.744 16.158 314 17.3037 314 18.6074V28H309.964V19.3185C309.964 18.5481 309.803 17.8864 309.481 17.3333C309.178 16.7802 308.752 16.3556 308.202 16.0593C307.653 15.763 306.999 15.6148 306.242 15.6148C305.616 15.6148 305.038 15.7333 304.508 15.9704C303.996 16.1877 303.551 16.4938 303.172 16.8889C302.812 17.2642 302.528 17.679 302.32 18.1333C302.111 18.5679 302.007 19.0025 302.007 19.437V28H300.018C299.411 28 298.938 28 298.597 28C298.275 28 298.076 28 298 28Z" fill="black"/>
<path d="M275 28V7H278.95V16.7905L277.87 17.1027C278.079 16.327 278.505 15.6081 279.149 14.9459C279.812 14.2838 280.627 13.7446 281.593 13.3284C282.559 12.8932 283.592 12.6757 284.691 12.6757C286.074 12.6757 287.23 12.95 288.158 13.4986C289.086 14.0284 289.787 14.7662 290.261 15.7122C290.754 16.6581 291 17.7459 291 18.9757V28H286.964V19.7419C286.964 18.9662 286.803 18.3135 286.481 17.7838C286.178 17.2351 285.752 16.8189 285.202 16.5351C284.653 16.2514 284.009 16.1095 283.27 16.1095C282.645 16.1095 282.067 16.223 281.536 16.45C281.025 16.6581 280.58 16.9419 280.201 17.3014C279.841 17.6419 279.547 18.0392 279.32 18.4932C279.111 18.9473 279.007 19.4108 279.007 19.8838V28H277.018C276.411 28 275.938 28 275.597 28C275.275 28 275.076 28 275 28Z" fill="black"/>
<path d="M263.185 28C261.416 28 259.842 27.6509 258.461 26.9527C257.081 26.2545 255.993 25.3042 255.196 24.1018C254.399 22.88 254 21.5127 254 20C254 18.4679 254.399 17.1006 255.196 15.8982C255.993 14.6958 257.062 13.7455 258.403 13.0473C259.764 12.3491 261.309 12 263.039 12C264.672 12 266.189 12.2424 267.588 12.7273C268.988 13.2121 270.125 13.8909 271 14.7636L268.726 17.76C268.317 17.3527 267.812 16.9939 267.209 16.6836C266.626 16.3539 266.004 16.0921 265.343 15.8982C264.682 15.7042 264.011 15.6073 263.331 15.6073C262.32 15.6073 261.426 15.8012 260.648 16.1891C259.871 16.5576 259.268 17.0715 258.84 17.7309C258.413 18.3709 258.199 19.1273 258.199 20C258.199 20.8533 258.423 21.6097 258.87 22.2691C259.317 22.9285 259.929 23.4521 260.707 23.84C261.484 24.2085 262.359 24.3927 263.331 24.3927C264.148 24.3927 264.886 24.3055 265.547 24.1309C266.208 23.9564 266.801 23.7333 267.326 23.4618C267.851 23.1903 268.327 22.8994 268.755 22.5891L271 25.5273C270.028 26.2255 268.881 26.817 267.559 27.3018C266.257 27.7673 264.799 28 263.185 28Z" fill="black"/>
<path d="M242.797 28C240.859 28 239.153 27.6606 237.681 26.9818C236.208 26.303 235.054 25.3721 234.221 24.1891C233.407 22.9867 233 21.6291 233 20.1164C233 18.8752 233.242 17.76 233.727 16.7709C234.231 15.7818 234.899 14.9382 235.733 14.24C236.585 13.5224 237.574 12.9697 238.698 12.5818C239.842 12.1939 241.043 12 242.303 12C243.543 12 244.697 12.1939 245.762 12.5818C246.828 12.9503 247.759 13.4739 248.553 14.1527C249.348 14.8315 249.958 15.6364 250.385 16.5673C250.831 17.4982 251.034 18.5261 250.995 19.6509L250.966 21.0473H235.994L235.326 18.3709H247.565L247.1 18.9236V18.2836C247.022 17.7212 246.761 17.2267 246.315 16.8C245.869 16.3733 245.297 16.0436 244.6 15.8109C243.921 15.5782 243.175 15.4618 242.361 15.4618C241.314 15.4618 240.375 15.617 239.541 15.9273C238.727 16.2182 238.078 16.6836 237.593 17.3236C237.128 17.9636 236.896 18.7879 236.896 19.7964C236.896 20.7079 237.167 21.5127 237.71 22.2109C238.252 22.9091 239.008 23.4618 239.977 23.8691C240.966 24.257 242.119 24.4509 243.437 24.4509C244.638 24.4509 245.636 24.2958 246.431 23.9855C247.245 23.6752 247.933 23.3455 248.495 22.9964L250.327 25.7309C249.687 26.1964 248.96 26.6036 248.146 26.9527C247.332 27.2824 246.47 27.5345 245.559 27.7091C244.667 27.903 243.747 28 242.797 28Z" fill="black"/>
<path d="M222.057 28V8H226.262V28H222.057ZM218 16.2111V12.4868H231V16.2111H218Z" fill="black"/>
<path d="M203.536 28C202.217 28 201.058 27.731 200.058 27.193C199.079 26.6364 198.319 25.8386 197.78 24.7996C197.26 23.7421 197 22.4805 197 21.0148V13H201.258V20.18C201.258 21.1076 201.387 21.8961 201.647 22.5455C201.927 23.1763 202.357 23.6586 202.937 23.9926C203.536 24.308 204.286 24.4657 205.185 24.4657C205.825 24.4657 206.414 24.3822 206.954 24.2152C207.514 24.0297 207.994 23.7699 208.393 23.436C208.813 23.0835 209.143 22.666 209.383 22.1837C209.623 21.7013 209.743 21.1633 209.743 20.5696V13H214V27.7217H209.952L209.802 24.6883L210.582 24.3544C210.342 24.9666 209.892 25.551 209.233 26.1076C208.593 26.6642 207.784 27.1187 206.804 27.4712C205.845 27.8237 204.755 28 203.536 28Z" fill="black"/>
<path d="M181.454 28C179.781 28 178.308 27.6606 177.033 26.9818C175.758 26.2836 174.763 25.3333 174.046 24.1309C173.349 22.9285 173 21.5515 173 20C173 18.4485 173.368 17.0715 174.105 15.8691C174.842 14.6667 175.848 13.7261 177.123 13.0473C178.417 12.3491 179.901 12 181.574 12C182.59 12 183.516 12.1261 184.352 12.3782C185.209 12.6109 185.945 12.9309 186.563 13.3382C187.2 13.7261 187.708 14.1624 188.086 14.6473C188.485 15.1127 188.734 15.5782 188.833 16.0436L187.788 16.0727V12.32H192V27.7091H187.728V23.6364L188.624 23.84C188.545 24.3248 188.296 24.8097 187.877 25.2945C187.479 25.7794 186.961 26.2255 186.324 26.6327C185.687 27.04 184.95 27.3697 184.113 27.6218C183.277 27.8739 182.39 28 181.454 28ZM182.56 24.4218C183.615 24.4218 184.541 24.2376 185.338 23.8691C186.135 23.4812 186.752 22.9576 187.19 22.2982C187.628 21.6194 187.847 20.8533 187.847 20C187.847 19.1273 187.628 18.3612 187.19 17.7018C186.752 17.0424 186.135 16.5285 185.338 16.16C184.541 15.7721 183.615 15.5782 182.56 15.5782C181.504 15.5782 180.578 15.7721 179.781 16.16C178.985 16.5285 178.357 17.0424 177.899 17.7018C177.441 18.3612 177.212 19.1273 177.212 20C177.212 20.8533 177.441 21.6194 177.899 22.2982C178.357 22.9576 178.985 23.4812 179.781 23.8691C180.578 24.2376 181.504 24.4218 182.56 24.4218Z" fill="black"/>
<path d="M162.721 28C161.817 28 160.962 27.888 160.154 27.664C159.365 27.44 158.654 27.1507 158.019 26.796C157.404 26.4227 156.894 26.0213 156.49 25.592C156.106 25.1627 155.856 24.752 155.74 24.36L157.038 24.192L156.865 27.664H153V7H157.096V16.38L155.942 16.24C156.058 15.8293 156.308 15.4093 156.692 14.98C157.096 14.5507 157.606 14.1587 158.221 13.804C158.837 13.4307 159.529 13.1413 160.298 12.936C161.087 12.712 161.913 12.6 162.779 12.6C164.337 12.6 165.731 12.936 166.962 13.608C168.192 14.2613 169.173 15.1667 169.904 16.324C170.635 17.4627 171 18.788 171 20.3C171 21.7933 170.644 23.128 169.933 24.304C169.221 25.4613 168.24 26.3667 166.99 27.02C165.76 27.6733 164.337 28 162.721 28ZM161.913 24.584C162.933 24.584 163.817 24.4067 164.567 24.052C165.337 23.6787 165.933 23.1747 166.356 22.54C166.779 21.8867 166.99 21.14 166.99 20.3C166.99 19.46 166.779 18.7227 166.356 18.088C165.933 17.4347 165.337 16.9307 164.567 16.576C163.817 16.2213 162.933 16.044 161.913 16.044C160.894 16.044 159.99 16.2213 159.202 16.576C158.433 16.9307 157.827 17.4347 157.385 18.088C156.962 18.7227 156.75 19.46 156.75 20.3C156.75 21.14 156.962 21.8867 157.385 22.54C157.827 23.1747 158.433 23.6787 159.202 24.052C159.99 24.4067 160.894 24.584 161.913 24.584Z" fill="black"/>
<path d="M138.076 35C136.402 35 134.905 34.8009 133.585 34.4026C132.265 34.0242 131.201 33.5662 130.393 33.0286L131.812 29.8623C132.265 30.0814 132.777 30.3104 133.348 30.5494C133.92 30.8082 134.56 31.0173 135.269 31.1766C135.998 31.3359 136.796 31.4156 137.663 31.4156C138.726 31.4156 139.642 31.2264 140.411 30.8481C141.179 30.4697 141.76 29.9022 142.154 29.1455C142.568 28.3887 142.774 27.4528 142.774 26.3377V24.3662L143.513 24.5156C143.375 25.1329 142.962 25.7203 142.272 26.2779C141.583 26.8355 140.716 27.2835 139.672 27.6221C138.628 27.9606 137.515 28.1299 136.333 28.1299C134.678 28.1299 133.23 27.8013 131.989 27.1442C130.748 26.4671 129.773 25.5312 129.064 24.3364C128.355 23.1216 128 21.7377 128 20.1844C128 18.5714 128.364 17.1576 129.093 15.9429C129.842 14.7082 130.856 13.7424 132.137 13.0455C133.437 12.3485 134.924 12 136.599 12C137.091 12 137.643 12.0597 138.253 12.1792C138.884 12.2987 139.514 12.4779 140.145 12.7169C140.775 12.9359 141.356 13.1948 141.888 13.4935C142.42 13.7723 142.843 14.1009 143.159 14.4792C143.494 14.8576 143.681 15.2658 143.72 15.7039L142.834 15.9429L142.981 12.3286H147V26.1584C147 27.632 146.764 28.9164 146.291 30.0117C145.818 31.1268 145.168 32.0528 144.341 32.7896C143.533 33.5264 142.587 34.074 141.504 34.4325C140.44 34.8108 139.298 35 138.076 35ZM137.663 24.7247C138.726 24.7247 139.652 24.5355 140.44 24.1571C141.248 23.7788 141.858 23.2511 142.272 22.574C142.706 21.8771 142.922 21.0805 142.922 20.1844C142.922 19.2883 142.706 18.5017 142.272 17.8247C141.839 17.1476 141.228 16.6199 140.44 16.2416C139.652 15.8433 138.726 15.6442 137.663 15.6442C136.599 15.6442 135.653 15.8433 134.826 16.2416C133.998 16.6199 133.348 17.1476 132.876 17.8247C132.422 18.5017 132.196 19.2883 132.196 20.1844C132.196 21.0606 132.422 21.8472 132.876 22.5442C133.348 23.2212 133.998 23.7589 134.826 24.1571C135.653 24.5355 136.599 24.7247 137.663 24.7247Z" fill="black"/>
<path d="M114 28V12.3259H117.769L117.908 17.8667L116.882 17.4519C117.159 16.4444 117.612 15.5259 118.24 14.6963C118.868 13.8667 119.598 13.2148 120.43 12.7407C121.279 12.2469 122.166 12 123.09 12C123.663 12 124.199 12.0593 124.697 12.1778C125.215 12.2963 125.649 12.4642 126 12.6815L124.947 17.1852C124.614 16.9679 124.18 16.7901 123.644 16.6519C123.109 16.5136 122.591 16.4444 122.092 16.4444C121.464 16.4444 120.882 16.5531 120.346 16.7704C119.829 16.9877 119.386 17.2938 119.016 17.6889C118.665 18.0642 118.397 18.4988 118.212 18.9926C118.028 19.4667 117.935 19.9506 117.935 20.4444V28H114Z" fill="black"/>
<path d="M100.797 28C98.859 28 97.1535 27.6606 95.6805 26.9818C94.2076 26.303 93.0544 25.3721 92.221 24.1891C91.407 22.9867 91 21.6291 91 20.1164C91 18.8752 91.2423 17.76 91.7268 16.7709C92.2307 15.7818 92.8993 14.9382 93.7327 14.24C94.5855 13.5224 95.5739 12.9697 96.698 12.5818C97.8415 12.1939 99.0432 12 100.303 12C101.543 12 102.696 12.1939 103.762 12.5818C104.828 12.9503 105.759 13.4739 106.553 14.1527C107.348 14.8315 107.958 15.6364 108.385 16.5673C108.831 17.4982 109.034 18.5261 108.995 19.6509L108.966 21.0473H93.9944L93.3257 18.3709H105.565L105.1 18.9236V18.2836C105.022 17.7212 104.761 17.2267 104.315 16.8C103.869 16.3733 103.297 16.0436 102.6 15.8109C101.921 15.5782 101.175 15.4618 100.361 15.4618C99.3145 15.4618 98.3745 15.617 97.5411 15.9273C96.7271 16.2182 96.0778 16.6836 95.5933 17.3236C95.1282 17.9636 94.8956 18.7879 94.8956 19.7964C94.8956 20.7079 95.1669 21.5127 95.7096 22.2109C96.2523 22.9091 97.0081 23.4618 97.9772 23.8691C98.9656 24.257 100.119 24.4509 101.437 24.4509C102.638 24.4509 103.636 24.2958 104.431 23.9855C105.245 23.6752 105.933 23.3455 106.495 22.9964L108.327 25.7309C107.687 26.1964 106.96 26.6036 106.146 26.9527C105.332 27.2824 104.47 27.5345 103.559 27.7091C102.667 27.903 101.747 28 100.797 28Z" fill="black"/>
<path d="M70 28V8H80.4878C82.1147 8 83.4704 8.2 84.555 8.6C85.659 8.98095 86.4918 9.54286 87.0535 10.2857C87.6346 11.0286 87.9251 11.9143 87.9251 12.9429C87.9251 14.0667 87.5958 15.0095 86.9373 15.7714C86.2982 16.5333 85.3395 17.0762 84.0612 17.4L84.1774 16.8286C85.0296 17.019 85.8236 17.3429 86.5596 17.8C87.315 18.2381 87.9057 18.8095 88.3318 19.5143C88.7773 20.2 89 21.0286 89 22C89 23.1238 88.7773 24.0762 88.3318 24.8571C87.8863 25.619 87.2762 26.2286 86.5015 26.6857C85.7462 27.1429 84.9037 27.4762 83.974 27.6857C83.0443 27.8952 82.0856 28 81.0979 28H70ZM74.1835 24.2857H81.0979C81.7951 24.2857 82.4149 24.2 82.9572 24.0286C83.4995 23.8381 83.9159 23.5619 84.2064 23.2C84.5163 22.819 84.6713 22.3619 84.6713 21.8286C84.6713 21.2381 84.4873 20.7714 84.1193 20.4286C83.7513 20.0667 83.2768 19.8095 82.6957 19.6571C82.134 19.5048 81.553 19.4286 80.9526 19.4286H74.1835V24.2857ZM74.1835 16H80.4587C81.0591 16 81.5917 15.9143 82.0566 15.7429C82.5408 15.5524 82.9185 15.2952 83.1896 14.9714C83.4608 14.6476 83.5963 14.2667 83.5963 13.8286C83.5963 13.0857 83.2864 12.5524 82.6667 12.2286C82.0469 11.8857 81.2334 11.7143 80.2263 11.7143H74.1835V16Z" fill="black"/>
<path d="M129.996 56.7722V43.5242H133.427L133.502 46.7047L132.65 46.4793C132.884 46.0953 133.185 45.7113 133.552 45.3273C133.919 44.9433 134.353 44.601 134.854 44.3005C135.372 44 135.948 43.7579 136.582 43.5743C137.233 43.3739 137.926 43.2737 138.661 43.2737C139.462 43.2737 140.189 43.399 140.84 43.6494C141.507 43.8998 142.067 44.2922 142.518 44.8264C142.985 45.344 143.311 46.0369 143.494 46.905L142.618 46.8049L142.818 46.4042C143.069 46.0369 143.394 45.6696 143.795 45.3023C144.195 44.9183 144.655 44.5844 145.172 44.3005C145.69 44 146.257 43.7579 146.875 43.5743C147.51 43.3739 148.161 43.2737 148.829 43.2737C150.147 43.2737 151.199 43.5158 151.984 44C152.785 44.4842 153.361 45.152 153.712 46.0035C154.079 46.855 154.263 47.815 154.263 48.8835V56.7722H150.707V49.3092C150.707 48.7082 150.607 48.1906 150.406 47.7565C150.223 47.3057 149.922 46.9635 149.505 46.7297C149.104 46.4793 148.578 46.3541 147.927 46.3541C147.359 46.3541 146.833 46.4459 146.349 46.6296C145.865 46.7965 145.431 47.0386 145.047 47.3558C144.68 47.673 144.396 48.0404 144.195 48.4577C143.995 48.8751 143.895 49.3259 143.895 49.8101V56.7722H140.339V49.2842C140.339 48.6998 140.222 48.1906 139.988 47.7565C139.771 47.3057 139.437 46.9635 138.986 46.7297C138.536 46.4793 137.943 46.3541 137.208 46.3541C136.674 46.3541 136.182 46.4543 135.731 46.6546C135.297 46.8383 134.913 47.0887 134.579 47.4059C134.262 47.7231 134.011 48.0654 133.828 48.4327C133.644 48.7833 133.552 49.1339 133.552 49.4845V56.7722H129.996Z" fill="black"/>
<path d="M115.997 57.0226C114.595 57.0226 113.359 56.7304 112.291 56.1461C111.222 55.545 110.387 54.727 109.786 53.6918C109.202 52.6567 108.91 51.4713 108.91 50.1357C108.91 48.8 109.219 47.6146 109.837 46.5795C110.454 45.5444 111.297 44.7346 112.366 44.1503C113.451 43.5492 114.695 43.2487 116.097 43.2487C116.949 43.2487 117.725 43.3572 118.426 43.5743C119.144 43.7746 119.762 44.0501 120.28 44.4007C120.814 44.7346 121.24 45.1103 121.557 45.5277C121.891 45.9284 122.099 46.3291 122.183 46.7297L121.306 46.7548V43.5242H124.838V56.7722H121.256V53.2661L122.008 53.4414C121.941 53.8588 121.732 54.2762 121.382 54.6936C121.048 55.111 120.614 55.495 120.079 55.8456C119.545 56.1962 118.927 56.48 118.226 56.697C117.525 56.9141 116.782 57.0226 115.997 57.0226ZM116.924 53.9423C117.809 53.9423 118.585 53.7837 119.253 53.4664C119.921 53.1325 120.438 52.6817 120.806 52.1141C121.173 51.5297 121.357 50.8703 121.357 50.1357C121.357 49.3844 121.173 48.7249 120.806 48.1572C120.438 47.5896 119.921 47.1471 119.253 46.8299C118.585 46.496 117.809 46.3291 116.924 46.3291C116.039 46.3291 115.263 46.496 114.595 46.8299C113.927 47.1471 113.401 47.5896 113.017 48.1572C112.633 48.7249 112.441 49.3844 112.441 50.1357C112.441 50.8703 112.633 51.5297 113.017 52.1141C113.401 52.6817 113.927 53.1325 114.595 53.4664C115.263 53.7837 116.039 53.9423 116.924 53.9423Z" fill="black"/>
<path d="M91.2327 56.7722V38.24H94.7137V46.88L93.7621 47.1555C93.9457 46.4709 94.3214 45.8365 94.889 45.2522C95.4734 44.6678 96.1913 44.192 97.0428 43.8247C97.8942 43.4407 98.8041 43.2487 99.7725 43.2487C100.991 43.2487 102.01 43.4908 102.828 43.9749C103.646 44.4424 104.264 45.0936 104.681 45.9283C105.115 46.7631 105.332 47.7231 105.332 48.8083V56.7722H101.776V49.4845C101.776 48.8 101.634 48.224 101.35 47.7565C101.083 47.2723 100.707 46.905 100.223 46.6546C99.7391 46.4042 99.1714 46.2789 98.5203 46.2789C97.9694 46.2789 97.4601 46.3791 96.9927 46.5795C96.5419 46.7631 96.1495 47.0136 95.8156 47.3308C95.4984 47.6313 95.2396 47.9819 95.0393 48.3826C94.8556 48.7833 94.7638 49.1923 94.7638 49.6097V56.7722H93.0108C92.4765 56.7722 92.0591 56.7722 91.7586 56.7722C91.4748 56.7722 91.2994 56.7722 91.2327 56.7722Z" fill="black"/>
<path d="M79.9673 57.0226C78.5649 57.0226 77.2543 56.8139 76.0355 56.3965C74.8334 55.9624 73.7816 55.3447 72.88 54.5433C71.9784 53.7252 71.2689 52.7569 70.7513 51.6383C70.2504 50.5197 70 49.2925 70 47.9569C70 46.6546 70.2588 45.4609 70.7763 44.3757C71.2939 43.2738 72.0035 42.3138 72.905 41.4957C73.8233 40.6776 74.8835 40.0515 76.0856 39.6174C77.3043 39.1833 78.615 38.9663 80.0174 38.9663C81.0358 38.9663 82.0209 39.0915 82.9725 39.3419C83.9242 39.5924 84.7923 39.9263 85.577 40.3437C86.3784 40.7611 87.0546 41.2369 87.6056 41.7711L85.3767 44.6511C84.8925 44.2338 84.375 43.8665 83.824 43.5492C83.2897 43.2153 82.6887 42.9565 82.0209 42.7729C81.3697 42.5725 80.6435 42.4724 79.8421 42.4724C79.0741 42.4724 78.3311 42.5976 77.6132 42.848C76.912 43.0984 76.2776 43.4658 75.7099 43.9499C75.1423 44.4174 74.6831 44.9934 74.3325 45.6779C73.9986 46.3624 73.8317 47.1304 73.8317 47.9819C73.8317 48.8668 74.007 49.6598 74.3576 50.3611C74.7082 51.0456 75.184 51.6299 75.785 52.1141C76.3861 52.5816 77.0706 52.9405 77.8386 53.191C78.6233 53.4247 79.4497 53.5416 80.3179 53.5416C81.1193 53.5416 81.8456 53.4331 82.4967 53.216C83.1645 52.9823 83.7656 52.7068 84.2998 52.3896C84.8341 52.0557 85.3016 51.7134 85.7023 51.3628L87.5054 54.3179C87.0546 54.7353 86.4369 55.1527 85.6522 55.5701C84.8842 55.9875 84.0076 56.3381 83.0226 56.6219C82.0376 56.8891 81.0191 57.0226 79.9673 57.0226Z" fill="black"/>
<path d="M30 54.6094C43.5914 54.6094 54.6094 43.5914 54.6094 30C54.6094 16.4086 43.5914 5.39062 30 5.39062C16.4086 5.39062 5.39062 16.4086 5.39062 30C5.39062 43.5914 16.4086 54.6094 30 54.6094Z" stroke="black" stroke-width="4"/>
<path d="M30 14.0625L16.4062 30.4688H21.7969L30 22.2656L38.2031 30.4688H43.5938L30 14.0625Z" fill="black"/>
<path d="M17.1094 33.9844H42.8906C42.1875 41.0156 36.7969 45.9375 30 45.9375C23.2031 45.9375 17.8125 41.0156 17.1094 33.9844Z" fill="black"/>
</svg>
