<svg width="348" height="56" viewBox="0 0 348 56" fill="none" xmlns="http://www.w3.org/2000/svg">
<g clip-path="url(#clip0_1_37)">
<path d="M47.9481 14.9632C47.9481 14.9632 47.9481 14.8973 47.9481 14.8709C48.1558 14.0792 47.7014 13.7097 47.1041 13.3666C45.9616 12.7201 44.845 12.0207 43.7025 11.361C42.3002 10.5429 40.885 9.73798 39.4828 8.91989C38.548 8.36569 37.6132 7.7983 36.6784 7.24411C34.9905 6.25448 33.3027 5.29124 31.6278 4.28841C29.7712 3.18002 27.9275 2.05844 26.0709 0.950047C25.5515 0.64656 25.0452 0.303487 24.4869 0.0923657C24.1883 -0.0263902 23.7468 -0.0395853 23.4872 0.105561C22.1369 0.857681 20.8255 1.66258 19.4882 2.45429C18.3197 3.14043 17.1512 3.80019 15.9827 4.48633C14.957 5.09331 13.9443 5.72667 12.9316 6.32045C11.8799 6.94062 10.8153 7.52121 9.76359 8.14138C8.24452 9.02545 6.73844 9.92271 5.23235 10.82C4.98566 10.9651 4.76494 11.1499 4.46632 11.361C4.89478 11.6513 5.24533 11.9152 5.60887 12.1395C6.56965 12.7201 7.54341 13.2743 8.50419 13.8681C9.10143 14.2375 9.60779 14.2771 10.257 13.8681C11.789 12.8916 13.386 12.0207 14.97 11.1103C16.2424 10.3845 17.5147 9.67201 18.7741 8.91989C20.2932 8.02262 21.8123 7.09896 23.3184 6.16211C23.7858 5.87182 24.1883 5.87182 24.6687 6.16211C27.3043 7.73233 29.9659 9.27616 32.6146 10.8464C34.3933 11.8888 36.159 12.9576 37.9378 14C39.34 14.8181 40.7552 15.623 42.1704 16.4279C42.3392 16.5335 42.482 16.6522 42.5859 16.7974C39.314 18.7898 33.1599 22.6164 31.3292 23.7116C30.0828 24.4505 28.8493 25.2026 27.6159 25.9548C26.5772 26.5749 25.5515 27.1819 24.5128 27.8021C24.1623 28.0132 23.7988 27.9868 23.4482 27.7757C21.5916 26.6673 19.7219 25.5721 17.8653 24.4637C15.9178 23.3157 13.9573 22.1942 12.0227 21.0462C10.218 19.9774 8.42629 18.8822 6.62159 17.8134C4.97268 16.8369 3.29781 15.9133 1.63592 14.95C1.32432 14.7653 1.03868 14.541 0.727076 14.3695C0.272654 14.1056 0.0129839 14.2771 0.0259674 14.8049C0.0259674 16.2564 0.0259674 17.7078 0.0259674 19.1593C0.0259674 19.6871 0.168786 20.0434 0.649175 20.3205C2.14228 21.1517 3.60941 22.0094 5.08953 22.8935C6.79037 23.9095 8.49121 24.9387 10.192 25.9548C10.984 26.4298 11.802 26.8784 12.594 27.3534C13.9573 28.1451 15.3075 28.95 16.6708 29.7549C18.7871 30.9953 20.9034 32.2356 23.0327 33.4628C23.1885 33.5551 23.3443 33.6475 23.4872 33.7399C23.8117 33.9642 24.1363 33.9642 24.4869 33.7531C26.2137 32.737 27.9275 31.721 29.6543 30.705C32.0043 29.3327 40.2229 24.1998 42.8845 22.6296C42.8845 24.3318 42.8845 26.0471 42.8845 27.7493C39.3919 29.8869 33.3027 33.6607 31.6668 34.6371C29.901 35.6795 28.1352 36.7088 26.3695 37.7512C25.7203 38.1338 25.0971 38.5429 24.422 38.8596C24.1753 38.9783 23.7728 38.9783 23.5261 38.8464C22.2537 38.1338 21.0073 37.3685 19.7479 36.6296C17.9692 35.5872 16.1645 34.5844 14.3857 33.5287C12.7887 32.5919 11.2177 31.6023 9.63376 30.6654C8.32242 29.8869 6.98512 29.1348 5.66081 28.3695C4.07682 27.4458 2.49283 26.4958 0.895862 25.5853C0.688126 25.4665 0.402489 25.3742 0.194753 25.427C0.0908849 25.4533 0.0389509 25.836 0.0259674 26.0603C3.54663e-07 26.7729 0.0259674 27.4854 0.0259674 28.1847C0.0259674 28.9764 -0.0129831 29.7681 0.0519344 30.5599C0.0779014 30.8238 0.298621 31.1404 0.532324 31.2856C2.05139 32.2224 3.60941 33.1197 5.14147 34.0302C6.67352 34.9538 8.19259 35.9039 9.73763 36.8011C11.6072 37.8831 13.5158 38.9123 15.3854 39.9943C16.4241 40.5881 17.4239 41.2611 18.4625 41.8681C20.0465 42.8049 21.6435 43.7154 23.2275 44.639C23.3703 44.7182 23.4872 44.8501 23.643 44.8897C23.8507 44.9425 24.1233 45.0217 24.2791 44.9293C25.0062 44.5467 25.7203 44.1112 26.4344 43.689C27.564 43.016 28.7065 42.3563 29.8361 41.6701C30.7319 41.1423 31.6018 40.5881 32.4977 40.0603C33.2767 39.5985 34.0947 39.1763 34.8737 38.7144C35.7046 38.2394 36.5226 37.7248 37.3405 37.2366C37.4834 37.1574 37.6132 37.065 37.769 37.0123C38.1845 36.8407 40.7812 35.2177 42.8845 33.7399V38.3318C42.8845 38.8992 42.6508 39.2686 42.1444 39.5457C40.7682 40.311 39.4309 41.1423 38.0676 41.9472C37.2237 42.4354 36.3668 42.9105 35.5358 43.3987C34.7309 43.8605 33.9389 44.3487 33.1469 44.8238C31.5889 45.7474 30.0308 46.6579 28.4728 47.5683C27.0966 48.3732 25.7203 49.1913 24.3311 49.9698C24.1493 50.0754 23.8377 50.0754 23.6689 49.983C21.3319 48.6371 18.9949 47.278 16.6578 45.9058C15.0868 44.9821 13.5288 44.032 11.9578 43.1216C10.0882 42.0264 8.20557 40.9708 6.33595 39.8756C4.51826 38.8068 2.71355 37.6984 0.882878 36.6296C0.675142 36.5108 0.389505 36.4581 0.168786 36.5108C0.0779013 36.524 0.0259674 36.9067 0.0259674 37.1178C3.54663e-07 38.5429 0.0259674 39.9548 -0.0259666 41.3798C-0.0259666 41.9076 0.181769 42.2111 0.597241 42.4618C1.77874 43.148 2.96024 43.8341 4.12875 44.5335C5.93346 45.6023 7.73817 46.6711 9.55586 47.7267C11.4514 48.8351 13.347 49.9435 15.2296 51.0518C17.7484 52.5297 20.2802 54.0207 22.799 55.4986C22.8639 55.5382 22.9418 55.591 23.0068 55.6305C23.8507 56.2111 24.0714 56.1847 24.9413 55.6305C25.967 54.984 27.0057 54.4034 28.0444 53.7832C28.9272 53.2686 29.8101 52.7408 30.693 52.2262C32.3159 51.2762 33.9519 50.3393 35.5748 49.3761C37.1718 48.4392 38.7557 47.476 40.3527 46.5259C41.8978 45.6155 43.4428 44.7182 44.9748 43.8209C45.7798 43.3591 46.5848 42.8973 47.3768 42.4222C47.7533 42.1979 47.9221 41.8549 47.9221 41.393C47.9221 39.0179 47.9221 36.6428 47.9221 34.2677C47.9221 27.8417 47.9221 21.4288 47.9091 15.0028" fill="white"/>
</g>
<path d="M343.781 0H347.864V25.7197H343.781V0Z" fill="white"/>
<path d="M334.996 15.9217C334.996 15.4001 334.917 14.9011 334.758 14.4248C334.622 13.9485 334.395 13.5289 334.078 13.166C333.76 12.8032 333.352 12.5196 332.853 12.3155C332.377 12.0887 331.81 11.9753 331.152 11.9753C329.927 11.9753 328.884 12.3495 328.022 13.098C327.183 13.8238 326.718 14.765 326.627 15.9217H334.996ZM339.079 17.7588C339.079 17.9403 339.079 18.1217 339.079 18.3032C339.079 18.4846 339.068 18.6661 339.045 18.8475H326.627C326.673 19.4372 326.82 19.9815 327.07 20.4805C327.342 20.9568 327.693 21.3764 328.124 21.7393C328.555 22.0795 329.043 22.3517 329.587 22.5558C330.131 22.7599 330.698 22.862 331.288 22.862C332.309 22.862 333.171 22.6805 333.874 22.3176C334.577 21.9321 335.155 21.4104 335.609 20.7527L338.33 22.93C336.72 25.1073 334.384 26.196 331.322 26.196C330.052 26.196 328.884 26.0032 327.818 25.6176C326.752 25.2094 325.822 24.6424 325.028 23.9166C324.257 23.1908 323.645 22.3063 323.191 21.263C322.76 20.197 322.545 18.9949 322.545 17.6568C322.545 16.3413 322.76 15.1506 323.191 14.0846C323.645 12.9959 324.257 12.0774 325.028 11.3289C325.799 10.5578 326.707 9.96809 327.75 9.55984C328.816 9.12891 329.961 8.91344 331.186 8.91344C332.32 8.91344 333.363 9.10623 334.316 9.4918C335.291 9.85469 336.13 10.4104 336.834 11.1588C337.537 11.8846 338.081 12.8032 338.467 13.9145C338.875 15.0032 339.079 16.2846 339.079 17.7588Z" fill="white"/>
<path d="M317.857 25.7197H313.979V23.2702H313.911C313.344 24.2228 312.55 24.9486 311.529 25.4475C310.531 25.9465 309.454 26.196 308.297 26.196C307.05 26.196 305.927 25.9692 304.929 25.5156C303.954 25.0393 303.115 24.4156 302.412 23.6444C301.731 22.8506 301.198 21.9321 300.813 20.8888C300.45 19.8228 300.268 18.6887 300.268 17.4867C300.268 16.2846 300.461 15.1619 300.847 14.1186C301.232 13.0753 301.777 12.1681 302.48 11.397C303.183 10.6258 304.022 10.0248 304.997 9.59386C305.972 9.14025 307.038 8.91344 308.195 8.91344C308.944 8.91344 309.613 9.00417 310.202 9.18561C310.792 9.34437 311.302 9.5485 311.733 9.79798C312.187 10.0475 312.572 10.3196 312.89 10.6145C313.208 10.9093 313.468 11.1928 313.673 11.465H313.775V0H317.857V25.7197ZM304.419 17.4867C304.419 18.1217 304.51 18.7568 304.691 19.3918C304.895 20.0269 305.19 20.5939 305.576 21.0929C305.961 21.5919 306.449 22.0001 307.038 22.3176C307.628 22.6352 308.32 22.7939 309.114 22.7939C309.862 22.7939 310.531 22.6465 311.121 22.3517C311.711 22.0341 312.21 21.6259 312.618 21.1269C313.049 20.6279 313.366 20.0723 313.57 19.4599C313.797 18.8248 313.911 18.1898 313.911 17.5547C313.911 16.9197 313.797 16.2846 313.57 15.6496C313.366 15.0145 313.049 14.4475 312.618 13.9485C312.21 13.4495 311.711 13.0413 311.121 12.7238C310.531 12.4062 309.862 12.2475 309.114 12.2475C308.32 12.2475 307.628 12.4062 307.038 12.7238C306.449 13.0186 305.961 13.4155 305.576 13.9145C305.19 14.4135 304.895 14.9805 304.691 15.6155C304.51 16.2279 304.419 16.8516 304.419 17.4867Z" fill="white"/>
<path d="M280.773 9.38974H284.652V12.0093H284.72C285.083 11.1928 285.706 10.4784 286.591 9.86603C287.498 9.23097 288.564 8.91344 289.789 8.91344C290.855 8.91344 291.762 9.10623 292.511 9.4918C293.282 9.85469 293.905 10.3423 294.382 10.9547C294.881 11.5671 295.244 12.2702 295.47 13.064C295.697 13.8578 295.811 14.6743 295.811 15.5135V25.7197H291.728V16.6702C291.728 16.1939 291.694 15.6949 291.626 15.1733C291.558 14.6516 291.411 14.1867 291.184 13.7784C290.957 13.3475 290.639 12.9959 290.231 12.7238C289.846 12.4516 289.324 12.3155 288.666 12.3155C288.008 12.3155 287.441 12.4516 286.965 12.7238C286.489 12.9733 286.092 13.3021 285.774 13.7104C285.48 14.1186 285.253 14.5949 285.094 15.1392C284.935 15.6609 284.856 16.1939 284.856 16.7382V25.7197H280.773V9.38974Z" fill="white"/>
<path d="M271.526 23.6444H271.424C271.016 24.3702 270.358 24.9713 269.451 25.4475C268.544 25.9012 267.512 26.128 266.355 26.128C265.697 26.128 265.006 26.0372 264.28 25.8558C263.577 25.697 262.919 25.4249 262.307 25.0393C261.717 24.631 261.218 24.1094 260.81 23.4743C260.424 22.8166 260.231 22.0114 260.231 21.0589C260.231 19.8341 260.572 18.8589 261.252 18.1331C261.955 17.4073 262.851 16.8516 263.94 16.4661C265.028 16.0805 266.23 15.831 267.546 15.7176C268.884 15.5815 270.188 15.5135 271.458 15.5135V15.1052C271.458 14.0846 271.084 13.3361 270.336 12.8599C269.61 12.3609 268.737 12.1114 267.716 12.1114C266.854 12.1114 266.026 12.2928 265.232 12.6557C264.439 13.0186 263.781 13.4609 263.259 13.9825L261.15 11.499C262.08 10.6372 263.146 9.99077 264.348 9.55984C265.573 9.12891 266.809 8.91344 268.056 8.91344C269.508 8.91344 270.699 9.11757 271.628 9.52582C272.581 9.93407 273.329 10.4671 273.874 11.1248C274.418 11.7825 274.792 12.5196 274.996 13.3361C275.223 14.1526 275.337 14.9691 275.337 15.7856V25.7197H271.526V23.6444ZM271.458 18.2692H270.54C269.882 18.2692 269.19 18.3032 268.464 18.3712C267.739 18.4166 267.07 18.5413 266.457 18.7455C265.845 18.9269 265.335 19.1991 264.926 19.5619C264.518 19.9022 264.314 20.3784 264.314 20.9908C264.314 21.3764 264.393 21.7053 264.552 21.9774C264.734 22.2269 264.96 22.431 265.232 22.5898C265.505 22.7486 265.811 22.862 266.151 22.93C266.491 22.998 266.831 23.0321 267.172 23.0321C268.578 23.0321 269.644 22.6578 270.37 21.9094C271.095 21.1609 271.458 20.1403 271.458 18.8475V18.2692Z" fill="white"/>
<path d="M249.924 8.91344C250.99 8.91344 251.897 9.10623 252.645 9.4918C253.416 9.85469 254.04 10.3423 254.516 10.9547C255.015 11.5671 255.378 12.2702 255.605 13.064C255.832 13.8578 255.945 14.6743 255.945 15.5135V25.7197H251.863V16.7382C251.863 16.2619 251.829 15.7743 251.761 15.2753C251.693 14.7537 251.545 14.2887 251.319 13.8805C251.114 13.4495 250.808 13.098 250.4 12.8258C250.014 12.5537 249.493 12.4176 248.835 12.4176C248.177 12.4176 247.61 12.5423 247.134 12.7918C246.658 13.0413 246.261 13.3815 245.943 13.8124C245.626 14.2207 245.388 14.6856 245.229 15.2073C245.07 15.7289 244.991 16.2619 244.991 16.8063V25.7197H240.908V0H244.991V11.6691H245.059C245.217 11.3289 245.444 11.0001 245.739 10.6825C246.057 10.3423 246.42 10.0475 246.828 9.79798C247.236 9.52582 247.701 9.31035 248.223 9.15159C248.744 8.99283 249.311 8.91344 249.924 8.91344Z" fill="white"/>
<path d="M231.125 0H235.207V25.7197H231.125V0Z" fill="white"/>
<path d="M221.341 0H225.423V25.7197H221.341V0Z" fill="white"/>
<path d="M212.026 23.6444H211.924C211.516 24.3702 210.858 24.9713 209.951 25.4475C209.043 25.9012 208.011 26.128 206.855 26.128C206.197 26.128 205.505 26.0372 204.779 25.8558C204.076 25.697 203.419 25.4249 202.806 25.0393C202.217 24.631 201.718 24.1094 201.309 23.4743C200.924 22.8166 200.731 22.0114 200.731 21.0589C200.731 19.8341 201.071 18.8589 201.752 18.1331C202.455 17.4073 203.351 16.8516 204.439 16.4661C205.528 16.0805 206.73 15.831 208.045 15.7176C209.384 15.5815 210.688 15.5135 211.958 15.5135V15.1052C211.958 14.0846 211.584 13.3361 210.835 12.8599C210.109 12.3609 209.236 12.1114 208.216 12.1114C207.354 12.1114 206.526 12.2928 205.732 12.6557C204.938 13.0186 204.28 13.4609 203.759 13.9825L201.65 11.499C202.579 10.6372 203.645 9.99077 204.847 9.55984C206.072 9.12891 207.308 8.91344 208.556 8.91344C210.007 8.91344 211.198 9.11757 212.128 9.52582C213.081 9.93407 213.829 10.4671 214.373 11.1248C214.918 11.7825 215.292 12.5196 215.496 13.3361C215.723 14.1526 215.836 14.9691 215.836 15.7856V25.7197H212.026V23.6444ZM211.958 18.2692H211.039C210.382 18.2692 209.69 18.3032 208.964 18.3712C208.238 18.4166 207.569 18.5413 206.957 18.7455C206.344 18.9269 205.834 19.1991 205.426 19.5619C205.018 19.9022 204.813 20.3784 204.813 20.9908C204.813 21.3764 204.893 21.7053 205.052 21.9774C205.233 22.2269 205.46 22.431 205.732 22.5898C206.004 22.7486 206.31 22.862 206.651 22.93C206.991 22.998 207.331 23.0321 207.671 23.0321C209.077 23.0321 210.143 22.6578 210.869 21.9094C211.595 21.1609 211.958 20.1403 211.958 18.8475V18.2692Z" fill="white"/>
<path d="M187.298 12.6557V9.38973H190.156V4.66084H194.17V9.38973H198.253V12.6557H194.17V20.2424C194.17 20.9681 194.295 21.5692 194.544 22.0455C194.817 22.5218 195.406 22.7599 196.314 22.7599C196.586 22.7599 196.881 22.7372 197.198 22.6919C197.516 22.6238 197.799 22.5331 198.049 22.4197L198.185 25.6176C197.822 25.7537 197.391 25.8558 196.892 25.9238C196.393 26.0146 195.917 26.0599 195.463 26.0599C194.374 26.0599 193.49 25.9125 192.809 25.6176C192.129 25.3001 191.585 24.8805 191.176 24.3589C190.791 23.8145 190.519 23.2022 190.36 22.5218C190.224 21.8187 190.156 21.0702 190.156 20.2764V12.6557H187.298Z" fill="white"/>
<path d="M180.929 15.9217C180.929 15.4001 180.849 14.9011 180.691 14.4248C180.555 13.9485 180.328 13.5289 180.01 13.166C179.693 12.8032 179.284 12.5196 178.785 12.3155C178.309 12.0887 177.742 11.9753 177.084 11.9753C175.86 11.9753 174.816 12.3495 173.954 13.098C173.115 13.8238 172.65 14.765 172.56 15.9217H180.929ZM185.011 17.7588C185.011 17.9403 185.011 18.1217 185.011 18.3032C185.011 18.4846 185 18.6661 184.977 18.8475H172.56C172.605 19.4372 172.752 19.9815 173.002 20.4805C173.274 20.9568 173.626 21.3764 174.057 21.7393C174.487 22.0795 174.975 22.3517 175.519 22.5558C176.064 22.7599 176.631 22.862 177.22 22.862C178.241 22.862 179.103 22.6805 179.806 22.3176C180.509 21.9321 181.088 21.4104 181.541 20.7527L184.263 22.93C182.652 25.1073 180.316 26.196 177.255 26.196C175.984 26.196 174.816 26.0032 173.75 25.6176C172.684 25.2094 171.754 24.6424 170.961 23.9166C170.19 23.1908 169.577 22.3063 169.124 21.263C168.693 20.197 168.477 18.9949 168.477 17.6568C168.477 16.3413 168.693 15.1506 169.124 14.0846C169.577 12.9959 170.19 12.0774 170.961 11.3289C171.732 10.5578 172.639 9.96809 173.682 9.55984C174.748 9.12891 175.894 8.91344 177.118 8.91344C178.252 8.91344 179.296 9.10623 180.248 9.4918C181.224 9.85469 182.063 10.4104 182.766 11.1588C183.469 11.8846 184.013 12.8032 184.399 13.9145C184.807 15.0032 185.011 16.2846 185.011 17.7588Z" fill="white"/>
<path d="M157.977 8.91344C159.043 8.91344 159.95 9.10623 160.698 9.4918C161.469 9.85469 162.093 10.3423 162.57 10.9547C163.068 11.5671 163.431 12.2702 163.658 13.064C163.885 13.8578 163.998 14.6743 163.998 15.5135V25.7197H159.916V16.6702C159.916 16.1939 159.882 15.6949 159.814 15.1733C159.746 14.6516 159.598 14.1867 159.372 13.7784C159.145 13.3475 158.827 12.9959 158.419 12.7238C158.033 12.4516 157.512 12.3155 156.854 12.3155C156.219 12.3155 155.675 12.4516 155.221 12.7238C154.767 12.9959 154.393 13.3475 154.098 13.7784C153.803 14.2093 153.588 14.697 153.452 15.2413C153.316 15.763 153.248 16.2846 153.248 16.8063V25.7197H149.165V15.8537C149.165 14.8331 148.916 13.9939 148.417 13.3361C147.941 12.6557 147.181 12.3155 146.137 12.3155C145.525 12.3155 144.992 12.4516 144.538 12.7238C144.085 12.9733 143.711 13.3021 143.416 13.7104C143.144 14.1186 142.928 14.5949 142.769 15.1392C142.633 15.6609 142.565 16.1939 142.565 16.7382V25.7197H138.483V9.38974H142.361V12.0093H142.429C142.611 11.6011 142.849 11.2155 143.144 10.8526C143.461 10.4897 143.824 10.1609 144.232 9.86603C144.663 9.57118 145.151 9.34437 145.695 9.18561C146.24 9.00417 146.841 8.91344 147.498 8.91344C148.768 8.91344 149.823 9.19695 150.662 9.76396C151.501 10.331 152.148 11.0794 152.601 12.0093C153.146 11.0114 153.872 10.2516 154.779 9.72994C155.686 9.18561 156.752 8.91344 157.977 8.91344Z" fill="white"/>
<path d="M128.767 0H132.85V25.7197H128.767V0Z" fill="white"/>
<path d="M119.982 15.9217C119.982 15.4001 119.903 14.9011 119.744 14.4248C119.608 13.9485 119.381 13.5289 119.064 13.166C118.746 12.8032 118.338 12.5196 117.839 12.3155C117.363 12.0887 116.796 11.9753 116.138 11.9753C114.913 11.9753 113.87 12.3495 113.008 13.098C112.169 13.8238 111.704 14.765 111.613 15.9217H119.982ZM124.065 17.7588C124.065 17.9403 124.065 18.1217 124.065 18.3032C124.065 18.4846 124.054 18.6661 124.031 18.8475H111.613C111.659 19.4372 111.806 19.9815 112.056 20.4805C112.328 20.9568 112.679 21.3764 113.11 21.7393C113.541 22.0795 114.029 22.3517 114.573 22.5558C115.117 22.7599 115.684 22.862 116.274 22.862C117.295 22.862 118.157 22.6805 118.86 22.3176C119.563 21.9321 120.141 21.4104 120.595 20.7527L123.316 22.93C121.706 25.1073 119.37 26.196 116.308 26.196C115.038 26.196 113.87 26.0032 112.804 25.6176C111.738 25.2094 110.808 24.6424 110.014 23.9166C109.243 23.1908 108.631 22.3063 108.177 21.263C107.746 20.197 107.531 18.9949 107.531 17.6568C107.531 16.3413 107.746 15.1506 108.177 14.0846C108.631 12.9959 109.243 12.0774 110.014 11.3289C110.785 10.5578 111.693 9.96809 112.736 9.55984C113.802 9.12891 114.947 8.91344 116.172 8.91344C117.306 8.91344 118.349 9.10623 119.302 9.4918C120.277 9.85469 121.116 10.4104 121.819 11.1588C122.523 11.8846 123.067 12.8032 123.452 13.9145C123.861 15.0032 124.065 16.2846 124.065 17.7588Z" fill="white"/>
<path d="M102.843 25.7197H98.9647V23.2702H98.8967C98.3297 24.2228 97.5358 24.9486 96.5152 25.4475C95.5173 25.9465 94.44 26.196 93.2833 26.196C92.0358 26.196 90.9131 25.9692 89.9152 25.5156C88.9399 25.0393 88.1008 24.4156 87.3977 23.6444C86.7172 22.8506 86.1842 21.9321 85.7987 20.8888C85.4358 19.8228 85.2543 18.6887 85.2543 17.4867C85.2543 16.2846 85.4471 15.1619 85.8327 14.1186C86.2183 13.0753 86.7626 12.1681 87.4657 11.397C88.1688 10.6258 89.008 10.0248 89.9832 9.59386C90.9585 9.14025 92.0245 8.91344 93.1812 8.91344C93.9296 8.91344 94.5987 9.00417 95.1884 9.18561C95.7781 9.34437 96.2884 9.5485 96.7194 9.79798C97.173 10.0475 97.5585 10.3196 97.8761 10.6145C98.1936 10.9093 98.4544 11.1928 98.6585 11.465H98.7606V0H102.843V25.7197ZM89.4049 17.4867C89.4049 18.1217 89.4956 18.7568 89.677 19.3918C89.8812 20.0269 90.176 20.5939 90.5616 21.0929C90.9472 21.5919 91.4348 22.0001 92.0245 22.3176C92.6142 22.6352 93.3059 22.7939 94.0997 22.7939C94.8482 22.7939 95.5173 22.6465 96.107 22.3517C96.6967 22.0341 97.1956 21.6259 97.6039 21.1269C98.0348 20.6279 98.3523 20.0723 98.5565 19.4599C98.7833 18.8248 98.8967 18.1898 98.8967 17.5547C98.8967 16.9197 98.7833 16.2846 98.5565 15.6496C98.3523 15.0145 98.0348 14.4475 97.6039 13.9485C97.1956 13.4495 96.6967 13.0413 96.107 12.7238C95.5173 12.4062 94.8482 12.2475 94.0997 12.2475C93.3059 12.2475 92.6142 12.4062 92.0245 12.7238C91.4348 13.0186 90.9472 13.4155 90.5616 13.9145C90.176 14.4135 89.8812 14.9805 89.677 15.6155C89.4956 16.2279 89.4049 16.8516 89.4049 17.4867Z" fill="white"/>
<path d="M65 1.633H80.9557V5.37529H69.2866V11.499H80.3434V15.1052H69.2866V21.9094H81.5681V25.7197H65V1.633Z" fill="white"/>
<path d="M128.03 40.6292C128.823 40.6292 129.498 40.7726 130.054 41.0594C130.628 41.3292 131.092 41.6919 131.446 42.1474C131.817 42.6028 132.087 43.1257 132.256 43.7161C132.424 44.3065 132.509 44.9137 132.509 45.5379V53.1286H129.472V46.3981C129.472 46.0439 129.447 45.6728 129.396 45.2848C129.346 44.8969 129.236 44.5511 129.067 44.2474C128.899 43.9269 128.663 43.6655 128.359 43.4631C128.072 43.2607 127.684 43.1594 127.195 43.1594C126.723 43.1594 126.318 43.2607 125.981 43.4631C125.643 43.6655 125.365 43.9269 125.146 44.2474C124.926 44.5679 124.766 44.9306 124.665 45.3354C124.564 45.7234 124.513 46.1114 124.513 46.4994V53.1286H121.477V45.7909C121.477 45.0318 121.291 44.4077 120.92 43.9185C120.566 43.4125 120.001 43.1594 119.225 43.1594C118.769 43.1594 118.373 43.2607 118.036 43.4631C117.698 43.6486 117.42 43.8932 117.201 44.1968C116.998 44.5005 116.838 44.8547 116.72 45.2595C116.619 45.6475 116.568 46.0439 116.568 46.4487V53.1286H113.532V40.9834H116.416V42.9317H116.467C116.602 42.6281 116.779 42.3413 116.998 42.0714C117.234 41.8016 117.504 41.557 117.808 41.3377C118.128 41.1184 118.491 40.9497 118.896 40.8316C119.301 40.6967 119.748 40.6292 120.237 40.6292C121.182 40.6292 121.966 40.8401 122.59 41.2618C123.214 41.6835 123.695 42.2401 124.032 42.9317C124.437 42.1895 124.977 41.6244 125.652 41.2365C126.326 40.8316 127.119 40.6292 128.03 40.6292Z" fill="white"/>
<path d="M106.655 51.5851H106.579C106.275 52.1249 105.786 52.5719 105.111 52.9261C104.436 53.2635 103.669 53.4322 102.809 53.4322C102.319 53.4322 101.805 53.3647 101.265 53.2298C100.742 53.1117 100.253 52.9093 99.7976 52.6225C99.359 52.3189 98.9879 51.9309 98.6843 51.4586C98.3976 50.9694 98.2542 50.3706 98.2542 49.6621C98.2542 48.7513 98.5072 48.0259 99.0132 47.4861C99.5362 46.9464 100.202 46.5331 101.012 46.2463C101.822 45.9596 102.716 45.774 103.694 45.6897C104.689 45.5885 105.659 45.5379 106.604 45.5379V45.2342C106.604 44.4752 106.326 43.9185 105.769 43.5643C105.229 43.1932 104.58 43.0076 103.821 43.0076C103.18 43.0076 102.564 43.1426 101.974 43.4125C101.383 43.6824 100.894 44.0113 100.506 44.3993L98.9373 42.5522C99.6289 41.9112 100.422 41.4305 101.316 41.11C102.227 40.7895 103.146 40.6292 104.074 40.6292C105.153 40.6292 106.039 40.781 106.73 41.0847C107.439 41.3883 107.996 41.7847 108.4 42.2739C108.805 42.763 109.084 43.3113 109.235 43.9185C109.404 44.5258 109.488 45.133 109.488 45.7403V53.1286H106.655V51.5851ZM106.604 47.5874H105.921C105.432 47.5874 104.917 47.6127 104.377 47.6633C103.838 47.697 103.34 47.7898 102.884 47.9416C102.429 48.0765 102.05 48.2789 101.746 48.5488C101.442 48.8019 101.29 49.1561 101.29 49.6115C101.29 49.8983 101.349 50.1429 101.468 50.3453C101.603 50.5309 101.771 50.6827 101.974 50.8007C102.176 50.9188 102.404 51.0032 102.657 51.0538C102.91 51.1044 103.163 51.1297 103.416 51.1297C104.462 51.1297 105.254 50.8514 105.794 50.2947C106.334 49.7381 106.604 48.979 106.604 48.0175V47.5874Z" fill="white"/>
<path d="M90.588 40.6292C91.3808 40.6292 92.0555 40.7726 92.6121 41.0593C93.1857 41.3292 93.6495 41.6919 94.0038 42.1474C94.3749 42.6028 94.6448 43.1257 94.8135 43.7161C94.9821 44.3065 95.0665 44.9137 95.0665 45.5379V53.1286H92.0302V46.4487C92.0302 46.0945 92.0049 45.7318 91.9543 45.3607C91.9037 44.9728 91.794 44.627 91.6254 44.3233C91.4735 44.0029 91.2458 43.7414 90.9422 43.539C90.6554 43.3366 90.2675 43.2353 89.7783 43.2353C89.2891 43.2353 88.8674 43.3281 88.5132 43.5137C88.1589 43.6992 87.8637 43.9522 87.6276 44.2727C87.3914 44.5764 87.2143 44.9222 87.0962 45.3101C86.9782 45.6981 86.9191 46.0945 86.9191 46.4994V53.1286H83.8828V34H86.9191V42.6787H86.9697C87.0878 42.4257 87.2565 42.1811 87.4758 41.9449C87.7119 41.6919 87.9818 41.4726 88.2854 41.2871C88.5891 41.0847 88.9349 40.9244 89.3228 40.8063C89.7108 40.6882 90.1325 40.6292 90.588 40.6292Z" fill="white"/>
<path d="M78.7898 39.4147C78.3175 38.7737 77.7018 38.3098 76.9427 38.0231C76.1836 37.7194 75.4414 37.5676 74.7161 37.5676C73.7883 37.5676 72.9449 37.7363 72.1859 38.0737C71.4268 38.411 70.7689 38.8749 70.2123 39.4653C69.6725 40.0557 69.2508 40.7473 68.9472 41.5401C68.6604 42.3329 68.517 43.1932 68.517 44.1209C68.517 45.0993 68.6604 45.9933 68.9472 46.803C69.2339 47.6126 69.6388 48.3127 70.1617 48.9031C70.7015 49.4766 71.3425 49.9236 72.0847 50.2441C72.8269 50.5646 73.6618 50.7248 74.5896 50.7248C75.5511 50.7248 76.4029 50.5393 77.1451 50.1682C77.8873 49.7802 78.4861 49.2742 78.9416 48.65L81.4971 50.4465C80.7043 51.4417 79.7344 52.2177 78.5874 52.7743C77.4403 53.3141 76.0993 53.584 74.5643 53.584C73.1642 53.584 71.8738 53.3563 70.693 52.9008C69.5291 52.4285 68.5255 51.7791 67.682 50.9526C66.8386 50.1091 66.1808 49.1139 65.7085 47.9669C65.2362 46.803 65 45.521 65 44.1209C65 42.6871 65.2446 41.3967 65.7338 40.2497C66.2398 39.0858 66.923 38.099 67.7833 37.2893C68.6604 36.4796 69.6894 35.8555 70.8701 35.4169C72.0509 34.9784 73.3329 34.7591 74.7161 34.7591C75.2896 34.7591 75.8884 34.8181 76.5126 34.9362C77.1367 35.0374 77.7355 35.2061 78.309 35.4422C78.8825 35.6615 79.4223 35.9398 79.9284 36.2772C80.4344 36.6146 80.8646 37.0194 81.2188 37.4917L78.7898 39.4147Z" fill="white"/>
<defs>
<clipPath id="clip0_1_37">
<rect width="48" height="56" fill="white"/>
</clipPath>
</defs>
</svg>
